<svg width="691" height="161" viewBox="0 0 691 161" fill="none" xmlns="http://www.w3.org/2000/svg">
<path d="M161.2 127.8C161.6 129.133 161.8 130.4 161.8 131.6C161.8 133.733 161.133 135.467 159.8 136.8C158.6 138 156.933 138.6 154.8 138.6C154 138.6 153.333 138.533 152.8 138.4C146.8 137.067 142.067 135.6 138.6 134C135.933 132.8 131 129.8 123.8 125C118.333 121.4 113.8 118.6 110.2 116.6C105.533 114.067 100.533 112.333 95.2 111.4C92.8 111 87.1333 110.333 78.2 109.4C74.2 109.133 71.2667 108.867 69.4 108.6L65.8 138.2L66 141.4C66 146.2 65.4 149.4 64.2 151C63.1333 152.6 60.8667 153.4 57.4 153.4C53.8 153.4 50.6667 152.267 48 150C45.3333 147.733 44 144.933 44 141.6C44 131.467 44.5333 122.467 45.6 114.6C49.3333 90.4667 57.9333 65.4 71.4 39.4C79 24.8667 90.6667 13.6667 106.4 5.8C111.467 3.26667 116.6 2 121.8 2C127.133 2 132.067 3.4 136.6 6.19999C141.267 8.86667 145.133 12.8 148.2 18C151 22.6667 152.4 27.2 152.4 31.6C152.4 37.7333 150 43.9333 145.2 50.2C139.467 57.6667 131.333 68.2667 120.8 82L107.8 98.8C107.933 98.8 108.067 99 108.2 99.4C108.467 99.6667 108.733 99.9333 109 100.2L113.4 102.6C124.467 108.6 132.6 113.333 137.8 116.8C142.867 119.867 148.267 121.4 154 121.4C155.733 121.4 157.067 121.333 158 121.2C158.4 121.867 158.933 122.867 159.6 124.2C160.267 125.533 160.8 126.733 161.2 127.8ZM87.2 88.2C92.6667 82.0667 98.1333 75.6667 103.6 69C109.2 62.3333 114.133 56.0667 118.4 50.2C120.133 47.8 121.6 45.2667 122.8 42.6C124 39.8 125.067 37 126 34.2C127.067 31.4 127.8 29.4 128.2 28.2C128.333 27.8 128.4 27.1333 128.4 26.2C128.4 25.1333 128.267 23.8 128 22.2C127.733 20.6 127.533 19.4667 127.4 18.8C117.667 21.7333 108.8 27.7333 100.8 36.8C92.8 45.8667 86.4667 55.9333 81.8 67C77.2667 78.0667 74.9333 87.6 74.8 95.6C77.4667 95.8667 79.5333 95.4 81 94.2C82.6 93 84.6667 91 87.2 88.2Z" fill="#588157"/>
<path d="M226.891 133.6C222.757 136.133 218.024 137.4 212.691 137.4C206.824 137.4 201.157 135.933 195.691 133C190.357 129.933 186.091 125.6 182.891 120C179.691 114.4 178.357 108 178.891 100.8L179.891 96C180.691 91.2 181.357 87.6667 181.891 85.4C183.091 80.4667 185.491 77 189.091 75C192.691 73 197.491 71.4 203.491 70.2C207.357 69.4 211.157 69 214.891 69C226.624 69 236.491 72.9333 244.491 80.8C248.757 85.0667 250.891 90.2667 250.891 96.4C250.891 102.4 248.691 108.867 244.291 115.8C239.224 123.667 233.424 129.6 226.891 133.6ZM210.091 79.2C207.957 84.4 205.691 90.8667 203.291 98.6L201.291 104.6L202.691 105.2C202.691 106.133 202.691 107.6 202.691 109.6C202.824 111.467 203.091 113.067 203.491 114.4C204.957 118.533 206.624 121.067 208.491 122C209.291 122.4 210.424 122.2 211.891 121.4C213.491 120.6 214.891 119.667 216.091 118.6C217.957 117 220.957 113.667 225.091 108.6C228.157 105.133 229.691 101 229.691 96.2C229.691 92.0667 228.491 88.3333 226.091 85C223.824 81.6667 220.624 79.4 216.491 78.2C216.091 78.0667 215.357 78 214.291 78C211.757 78 210.357 78.4 210.091 79.2Z" fill="#588157"/>
<path d="M312.089 58.2C318.222 58.2 323.222 60 327.089 63.6C331.089 67.0667 333.822 71.7333 335.289 77.6C336.089 80.8 336.356 84.4 336.089 88.4C335.956 90.6667 335.822 93.8667 335.689 98C335.556 101.467 335.089 106.6 334.289 113.4C333.489 120.067 333.022 125.067 332.889 128.4C332.756 130.8 332.689 134.333 332.689 139L332.889 155.2C330.356 156.267 328.089 156.8 326.089 156.8C324.089 156.8 322.022 156.133 319.889 154.8C318.422 153.733 317.422 153.067 316.889 152.8C316.489 152.533 315.889 151.4 315.089 149.4L313.489 145.6L312.489 141C305.022 142.6 300.622 143.533 299.289 143.8C297.422 143.933 295.956 144 294.889 144C289.956 144 285.156 142.8 280.489 140.4C275.956 138 272.289 134.667 269.489 130.4C266.822 126.133 265.422 121.533 265.289 116.6C265.156 111.933 266.822 108.2 270.289 105.4C277.622 99.5333 284.756 96.6 291.689 96.6C295.156 96.6 298.822 97.4 302.689 99C304.689 99.8 308.956 101.6 315.489 104.4L316.289 98.8C317.089 94 317.489 90.1333 317.489 87.2C317.489 82.8 316.489 78.6667 314.489 74.8C312.489 74.1333 311.022 73.9333 310.089 74.2C306.622 74.7333 303.156 75.4667 299.689 76.4C296.222 77.2 291.489 77.6 285.489 77.6C283.889 77.6 282.289 77 280.689 75.8C279.089 74.4667 278.356 73 278.489 71.4C278.889 69.2667 280.089 66.8667 282.089 64.2C283.289 62.7333 284.956 61.8667 287.089 61.6C289.622 61.2 291.689 60.9333 293.289 60.8C301.556 59.0667 307.822 58.2 312.089 58.2ZM295.089 127.6C298.289 126.667 300.956 125.6 303.089 124.4C305.222 123.067 307.089 121.133 308.689 118.6C303.889 114.867 300.222 112.267 297.689 110.8C295.156 109.333 292.689 108.6 290.289 108.6C289.356 108.6 288.222 108.8 286.889 109.2C285.556 109.6 284.556 110.2 283.889 111C282.689 112.467 282.089 114.533 282.089 117.2C282.089 119.6 282.556 121.667 283.489 123.4C284.556 124.867 285.889 126 287.489 126.8C289.089 127.6 290.756 128 292.489 128C293.022 128 293.889 127.867 295.089 127.6Z" fill="#588157"/>
<path d="M437.909 85.2C443.376 77.2 449.576 74.5333 456.509 77.2C463.576 79.8667 467.843 83.2 469.309 87.2L475.309 103.2C476.909 107.333 478.243 113.667 479.309 122.2C480.509 130.733 481.576 138.867 482.509 146.6C482.643 147 482.709 147.733 482.709 148.8C482.709 152.933 480.443 155.6 475.909 156.8C472.976 157.6 470.576 156.867 468.709 154.6C465.909 151.267 463.643 146.133 461.909 139.2C460.976 135.467 459.643 127.467 457.909 115.2C457.909 105.6 454.576 102.067 447.909 104.6C444.443 111.4 442.176 116.933 441.109 121.2C440.176 125.467 439.176 129.133 438.109 132.2C434.776 139.933 431.909 144.133 429.509 144.8C427.243 145.333 424.976 145.067 422.709 144C420.576 142.933 419.509 140.8 419.509 137.6C419.509 130.933 419.109 122.8 418.309 113.2C417.643 103.467 415.376 98.8667 411.509 99.4C407.776 99.8 405.176 101.2 403.709 103.6C402.243 105.867 400.376 110.2 398.109 116.6C395.976 123 394.376 130 393.309 137.6C393.043 139.6 392.243 141.8 390.909 144.2C389.709 146.467 388.576 147.867 387.509 148.4C386.443 149.067 384.443 148.733 381.509 147.4C378.709 146.2 377.043 144.4 376.509 142C375.976 139.467 375.509 136.867 375.109 134.2C374.043 126.733 373.509 120.333 373.509 115C373.643 109.667 373.243 104.667 372.309 100C372.043 98.9333 371.443 97.3333 370.509 95.2C369.576 93.0667 364.709 89.4667 355.909 84.4C353.509 82.1333 352.376 79.9333 352.509 77.8C352.643 75.5333 353.576 73.8667 355.309 72.8C357.976 71.2 360.843 70.4 363.909 70.4C367.776 70.4 371.443 71.5333 374.909 73.8C378.376 76.0667 380.976 78.6 382.709 81.4C384.309 83.9333 385.376 85.9333 385.909 87.4C386.443 88.8667 387.176 89.6 388.109 89.6C388.909 89.6 389.776 89 390.709 87.8C391.776 86.4667 393.243 84.8 395.109 82.8C398.976 78.6667 402.643 75.9333 406.109 74.6C409.709 73.1333 412.643 72.4 414.909 72.4C417.309 72.4 419.843 73.2 422.509 74.8C425.176 76.2667 426.976 78.8667 427.909 82.6L431.709 97.4L437.909 85.2Z" fill="#588157"/>
<path d="M575.164 98.7197C582.979 102.231 586.647 107.987 587.504 110.426C590.075 115.303 591.104 126.521 587.504 135.301C583.905 144.08 593.16 160.663 602.93 156.274C612.699 151.884 618.87 138.715 619.898 125.058C620.926 111.401 625.04 100.671 617.841 85.5505C610.643 70.4304 596.76 67.0161 579.277 72.3814C561.795 77.7466 565.394 94.33 575.164 98.7197Z" fill="#588157"/>
<ellipse cx="567" cy="59" rx="7" ry="9" fill="#588157"/>
<ellipse cx="582.5" cy="56" rx="4.5" ry="6" fill="#588157"/>
<ellipse cx="596" cy="58.5" rx="4" ry="5.5" fill="#588157"/>
<ellipse cx="608.5" cy="63" rx="3.5" ry="5" transform="rotate(11.4605 608.5 63)" fill="#588157"/>
<ellipse cx="617" cy="69.4999" rx="3" ry="4.5" transform="rotate(17.7785 617 69.4999)" fill="#588157"/>
<path d="M549.836 55.7197C542.021 59.2314 538.353 64.9869 537.496 67.4256C534.925 72.303 533.896 83.5212 537.496 92.3007C541.095 101.08 531.84 117.663 522.07 113.274C512.301 108.884 506.13 95.7149 505.102 82.058C504.074 68.4011 499.96 57.6706 507.159 42.5505C514.357 27.4304 528.24 24.0161 545.723 29.3814C563.205 34.7466 559.606 51.33 549.836 55.7197Z" fill="#588157"/>
<ellipse cx="7" cy="9" rx="7" ry="9" transform="matrix(-1 0 0 1 565 7)" fill="#588157"/>
<ellipse cx="4.5" cy="6" rx="4.5" ry="6" transform="matrix(-1 0 0 1 547 7)" fill="#588157"/>
<ellipse cx="4" cy="5.5" rx="4" ry="5.5" transform="matrix(-1 0 0 1 533 10)" fill="#588157"/>
<ellipse cx="3.5" cy="5" rx="3.5" ry="5" transform="matrix(-0.980062 0.198692 0.198692 0.980062 518.937 14.4043)" fill="#588157"/>
<ellipse cx="3" cy="4.5" rx="3" ry="4.5" transform="matrix(-0.952244 0.305338 0.305338 0.952244 509.483 21.2988)" fill="#588157"/>
</svg>
