<svg width="2040" height="213" viewBox="0 0 2040 213" fill="none" xmlns="http://www.w3.org/2000/svg">
<path d="M288.491 206.021V6.64585H338.557C351.11 6.64585 361.891 9.15649 370.9 14.1778C379.908 19.1991 386.85 25.8449 391.723 34.1153C396.744 42.238 399.255 51.1729 399.255 60.9202C399.255 71.8489 396.154 81.6699 389.951 90.3834C383.748 99.0968 375.256 105.521 364.475 109.656L431.377 206.021H401.913L338.557 114.308H313.745V206.021H288.491ZM313.745 93.0417H338.557C347.122 93.0417 354.063 91.491 359.38 88.3896C364.844 85.1405 368.832 81.0792 371.343 76.2056C374.001 71.1843 375.33 66.0891 375.33 60.9202C375.33 51.616 371.933 44.0102 365.14 38.1028C358.494 32.1954 349.633 29.2417 338.557 29.2417H313.745V93.0417Z" fill="#2D0000"/>
<path d="M543.677 210.008C529.352 210.008 515.839 207.35 503.138 202.033C490.585 196.569 479.508 189.111 469.909 179.659C460.457 170.207 452.999 159.205 447.534 146.651C442.218 134.098 439.559 120.659 439.559 106.333C439.559 92.0079 442.218 78.5685 447.534 66.0153C452.999 53.4621 460.457 42.4595 469.909 33.0076C479.508 23.5558 490.585 16.1715 503.138 10.8549C515.839 5.39053 529.352 2.65835 543.677 2.65835C558.151 2.65835 571.664 5.39053 584.217 10.8549C596.77 16.1715 607.773 23.5558 617.225 33.0076C626.824 42.4595 634.282 53.4621 639.599 66.0153C645.063 78.5685 647.795 92.0079 647.795 106.333C647.795 120.659 645.063 134.098 639.599 146.651C634.282 159.205 626.824 170.207 617.225 179.659C607.773 189.111 596.77 196.569 584.217 202.033C571.664 207.35 558.151 210.008 543.677 210.008ZM543.677 186.083C558.298 186.083 571.516 182.539 583.331 175.45C595.146 168.213 604.45 158.54 611.243 146.43C618.185 134.32 621.655 120.954 621.655 106.333C621.655 91.5648 618.185 78.1993 611.243 66.2368C604.45 54.1266 595.146 44.5271 583.331 37.4382C571.516 30.2016 558.298 26.5834 543.677 26.5834C529.057 26.5834 515.839 30.2016 504.024 37.4382C492.357 44.5271 483.053 54.1266 476.111 66.2368C469.17 78.1993 465.7 91.5648 465.7 106.333C465.7 120.954 469.17 134.32 476.111 146.43C483.053 158.54 492.357 168.213 504.024 175.45C515.839 182.539 529.057 186.083 543.677 186.083Z" fill="#2D0000"/>
<path d="M658.602 206.021L743.004 0H743.447L827.849 206.021H801.044L777.562 146.873H707.781L684.078 206.021H658.602ZM716.199 125.828H769.144L753.416 86.3959C751.496 81.3746 749.65 76.4271 747.878 71.5535C746.105 66.6799 744.333 60.8463 742.561 54.0528C740.789 60.8463 739.09 66.6799 737.466 71.5535C735.841 76.2794 733.995 81.2269 731.928 86.3959L716.199 125.828Z" fill="#2D0000"/>
<path d="M859.784 206.021V0L952.382 127.6L1043.21 0V206.021H1017.95V113.865C1017.95 107.81 1018.03 101.238 1018.18 94.1493C1018.32 86.9128 1018.84 78.7162 1019.73 69.5597C1015.15 77.6824 1010.64 84.8452 1006.21 91.0479C1001.93 97.103 998.017 102.715 994.473 107.884L951.496 168.804L907.191 107.884C903.499 102.715 899.511 97.103 895.228 91.0479C891.093 84.8452 886.662 77.6824 881.937 69.5597C882.823 78.7162 883.34 86.9128 883.487 94.1493C883.635 101.238 883.709 107.81 883.709 113.865V206.021H859.784Z" fill="#2D0000"/>
<path d="M1075.11 206.021L1159.51 0H1159.95L1244.36 206.021H1217.55L1194.07 146.873H1124.29L1100.58 206.021H1075.11ZM1132.71 125.828H1185.65L1169.92 86.3959C1168 81.3746 1166.16 76.4271 1164.38 71.5535C1162.61 66.6799 1160.84 60.8463 1159.07 54.0528C1157.3 60.8463 1155.6 66.6799 1153.97 71.5535C1152.35 76.2794 1150.5 81.2269 1148.43 86.3959L1132.71 125.828Z" fill="#2D0000"/>
<path d="M1439.78 212.667L1300.22 63.1354V206.021H1276.29V0L1415.85 149.531V6.64585H1439.78V212.667Z" fill="#2D0000"/>
<path d="M1478.32 29.2417V6.64585H1609.91V29.2417H1556.74V206.021H1531.49V29.2417H1478.32Z" fill="#2D0000"/>
<path d="M1651.22 206.021V6.64585H1676.47V206.021H1651.22Z" fill="#2D0000"/>
<path d="M1824.35 210.008C1810.03 210.008 1796.51 207.35 1783.81 202.033C1771.26 196.569 1760.18 189.111 1750.58 179.659C1741.13 170.207 1733.67 159.205 1728.21 146.651C1722.89 134.098 1720.23 120.659 1720.23 106.333C1720.23 92.0079 1722.89 78.5685 1728.21 66.0153C1733.67 53.4621 1741.13 42.4595 1750.58 33.0076C1760.18 23.5558 1771.26 16.1715 1783.81 10.8549C1796.51 5.39053 1810.03 2.65835 1824.35 2.65835C1838.53 2.65835 1851.82 5.31668 1864.23 10.6333C1876.63 15.8023 1887.56 22.9651 1897.01 32.1215L1889.7 62.6924C1882.91 51.7637 1873.75 43.0503 1862.23 36.5521C1850.86 29.9063 1838.23 26.5834 1824.35 26.5834C1809.73 26.5834 1796.51 30.2016 1784.7 37.4382C1773.03 44.5271 1763.73 54.1266 1756.78 66.2368C1749.84 78.1993 1746.37 91.5648 1746.37 106.333C1746.37 120.954 1749.84 134.32 1756.78 146.43C1763.73 158.54 1773.03 168.213 1784.7 175.45C1796.51 182.539 1809.73 186.083 1824.35 186.083C1838.38 186.083 1851.08 182.76 1862.45 176.115C1873.83 169.469 1882.91 160.755 1889.7 149.974L1897.01 180.545C1887.56 189.554 1876.63 196.717 1864.23 202.033C1851.82 207.35 1838.53 210.008 1824.35 210.008Z" fill="#2D0000"/>
<path d="M1977.2 208.679C1965.39 208.679 1954.68 206.316 1945.08 201.59C1935.63 196.864 1928.1 191.105 1922.49 184.311L1929.8 153.74C1933.93 162.011 1940.14 169.469 1948.41 176.115C1956.68 182.76 1966.57 186.083 1978.09 186.083C1988.58 186.083 1997.22 182.76 2004.01 176.115C2010.95 169.469 2014.42 161.272 2014.42 151.525C2014.42 144.436 2012.72 138.603 2009.33 134.024C2005.93 129.446 2002.09 125.828 1997.81 123.169C1993.52 120.511 1990.13 118.591 1987.62 117.41L1963.25 105.004C1959.41 102.937 1954.61 100.057 1948.85 96.3646C1943.24 92.6725 1938.29 87.5773 1934.01 81.0792C1929.72 74.581 1927.58 66.163 1927.58 55.825C1927.58 45.7824 1929.87 36.8475 1934.45 29.0202C1939.18 21.1928 1945.67 15.0639 1953.94 10.6333C1962.36 6.20279 1971.96 3.98752 1982.74 3.98752C1993.38 3.98752 2002.75 5.90742 2010.88 9.74724C2019 13.4394 2025.35 17.2792 2029.93 21.2667L2022.62 51.8375C2018.93 45.6347 2013.46 39.8012 2006.22 34.3368C1998.99 28.8725 1990.79 26.1403 1981.64 26.1403C1972.77 26.1403 1965.69 28.7986 1960.37 34.1153C1955.05 39.2843 1952.39 45.7086 1952.39 53.3882C1952.39 59.2956 1953.72 64.1692 1956.38 68.009C1959.19 71.8489 1962.29 74.8764 1965.69 77.0917C1969.23 79.307 1972.11 81.0053 1974.32 82.1868L1999.14 94.5924C2002.09 96.0692 2005.78 98.1368 2010.21 100.795C2014.79 103.454 2019.3 106.998 2023.73 111.429C2028.16 115.711 2031.85 121.028 2034.8 127.379C2037.76 133.581 2039.23 141.113 2039.23 149.974C2039.23 161.346 2036.5 171.463 2031.04 180.324C2025.72 189.185 2018.41 196.126 2009.1 201.147C1999.8 206.169 1989.17 208.679 1977.2 208.679Z" fill="#2D0000"/>
<path d="M146.916 15.6464C185.16 -21.1203 246.209 20.7821 226.014 69.938C223.974 74.9042 221.138 79.501 217.617 83.5457L115.367 201.036L13.1159 83.5457C9.5959 79.501 6.7594 74.9042 4.71915 69.938C-15.4753 20.7822 45.5728 -21.1202 83.817 15.6465L115.367 45.9773L146.916 15.6464Z" fill="#2D0000"/>
</svg>
